<mxfile host="app.diagrams.net" modified="2021-03-04T03:44:28.900Z" agent="5.0 (Windows NT 10.0; WOW64) AppleWebKit/537.36 (KHTML, like Gecko) Chrome/88.0.4324.182 Safari/537.36" etag="twTQpqSW2MCKHicDttuY" version="14.4.3" type="github">
  <diagram id="1IpxJ5xPlyXo6Vss8dZA" name="Page-1">
    <mxGraphModel dx="868" dy="450" grid="1" gridSize="10" guides="1" tooltips="1" connect="1" arrows="1" fold="1" page="1" pageScale="1" pageWidth="827" pageHeight="1169" math="0" shadow="0">
      <root>
        <mxCell id="0" />
        <mxCell id="1" parent="0" />
        <mxCell id="hDTQrUaRNeBPAnc33ed3-1" value="&lt;font style=&quot;font-size: 14px&quot;&gt;minitor 对象&lt;/font&gt;" style="rounded=0;whiteSpace=wrap;html=1;fontSize=14;fontStyle=1;fillColor=#dae8fc;strokeColor=#6c8ebf;sketch=1;" vertex="1" parent="1">
          <mxGeometry x="30" y="20" width="190" height="50" as="geometry" />
        </mxCell>
        <mxCell id="hDTQrUaRNeBPAnc33ed3-2" value="object 对象" style="rounded=1;whiteSpace=wrap;html=1;sketch=1;fontSize=14;" vertex="1" parent="1">
          <mxGeometry x="140" y="190" width="120" height="60" as="geometry" />
        </mxCell>
        <mxCell id="hDTQrUaRNeBPAnc33ed3-3" value="minitor 对象" style="rounded=1;whiteSpace=wrap;html=1;sketch=1;fontSize=14;" vertex="1" parent="1">
          <mxGeometry x="390" y="190" width="120" height="60" as="geometry" />
        </mxCell>
        <mxCell id="hDTQrUaRNeBPAnc33ed3-4" value="" style="shape=flexArrow;endArrow=classic;startArrow=classic;html=1;fontSize=14;sketch=1;" edge="1" parent="1">
          <mxGeometry width="50" height="50" relative="1" as="geometry">
            <mxPoint x="290" y="219.5" as="sourcePoint" />
            <mxPoint x="360" y="219.5" as="targetPoint" />
          </mxGeometry>
        </mxCell>
        <mxCell id="hDTQrUaRNeBPAnc33ed3-5" value="1对1" style="text;html=1;strokeColor=none;fillColor=none;align=center;verticalAlign=middle;whiteSpace=wrap;rounded=0;sketch=1;fontSize=14;" vertex="1" parent="1">
          <mxGeometry x="304" y="180" width="40" height="20" as="geometry" />
        </mxCell>
        <mxCell id="hDTQrUaRNeBPAnc33ed3-7" value="&lt;b&gt;Entry Set&lt;br&gt;&lt;/b&gt;&lt;br&gt;&lt;font style=&quot;font-size: 12px&quot;&gt;处于等待锁block状态的线程&lt;/font&gt;" style="rounded=1;whiteSpace=wrap;html=1;sketch=1;fontSize=14;" vertex="1" parent="1">
          <mxGeometry x="120" y="360" width="160" height="80" as="geometry" />
        </mxCell>
        <mxCell id="hDTQrUaRNeBPAnc33ed3-10" value="&lt;b&gt;Owner&lt;br&gt;&lt;/b&gt;&lt;br&gt;&lt;span style=&quot;font-size: 12px&quot;&gt;对象锁持有者线程&lt;/span&gt;" style="rounded=1;whiteSpace=wrap;html=1;sketch=1;fontSize=14;" vertex="1" parent="1">
          <mxGeometry x="360" y="360" width="160" height="80" as="geometry" />
        </mxCell>
        <mxCell id="hDTQrUaRNeBPAnc33ed3-11" value="" style="shape=flexArrow;endArrow=classic;html=1;fontSize=14;" edge="1" parent="1">
          <mxGeometry width="50" height="50" relative="1" as="geometry">
            <mxPoint x="290" y="410" as="sourcePoint" />
            <mxPoint x="350" y="400" as="targetPoint" />
          </mxGeometry>
        </mxCell>
        <mxCell id="hDTQrUaRNeBPAnc33ed3-12" value="&lt;b&gt;Wait Set&lt;br&gt;&lt;/b&gt;&lt;br&gt;&lt;span style=&quot;font-size: 12px&quot;&gt;处于 wait 状态的线程&lt;/span&gt;" style="rounded=1;whiteSpace=wrap;html=1;sketch=1;fontSize=14;" vertex="1" parent="1">
          <mxGeometry x="620" y="360" width="160" height="80" as="geometry" />
        </mxCell>
        <mxCell id="hDTQrUaRNeBPAnc33ed3-13" value="" style="shape=flexArrow;endArrow=classic;html=1;fontSize=14;" edge="1" parent="1">
          <mxGeometry width="50" height="50" relative="1" as="geometry">
            <mxPoint x="550" y="400" as="sourcePoint" />
            <mxPoint x="610" y="400" as="targetPoint" />
          </mxGeometry>
        </mxCell>
      </root>
    </mxGraphModel>
  </diagram>
</mxfile>
